<?xml version="1.0" encoding="utf-8"?>
<!-- Generator: Adobe Illustrator 17.1.0, SVG Export Plug-In . SVG Version: 6.00 Build 0)  -->
<!DOCTYPE svg PUBLIC "-//W3C//DTD SVG 1.1//EN" "http://www.w3.org/Graphics/SVG/1.1/DTD/svg11.dtd">
<svg version="1.1" id="Layer_1" xmlns="http://www.w3.org/2000/svg" xmlns:xlink="http://www.w3.org/1999/xlink" x="0px" y="0px"
	 viewBox="78.3 194.2 49.7 49.3" enable-background="new 78.3 194.2 49.7 49.3" xml:space="preserve">
<path fill="#FFFFFF" d="M84.7,200.2h3v9.8h-3L84.7,200.2z"/>
<path fill="#FFFFFF" d="M93.7,200.2h3v9.8h-3V200.2z"/>
<path fill="#FFFFFF" d="M93.7,210h3l-4.5-8.3h-3L93.7,210z"/>
<path fill="#FFFFFF" d="M87.7,210h-3l4.5-8.3h3L87.7,210z"/>
<path fill="#FFFFFF" d="M82.9,211.5v-12.8h3.3v-1.9h-4.5c-0.4,0-0.8,0.3-0.8,0.8v15c0,0.4,0.3,0.8,0.8,0.8h4.5v-1.9L82.9,211.5
	L82.9,211.5z"/>
<path fill="#FFFFFF" d="M98.5,211.5v-12.8h-3.3v-1.9h4.5c0.4,0,0.8,0.3,0.8,0.8v15c0,0.4-0.3,0.8-0.8,0.8h-4.5v-1.9L98.5,211.5
	L98.5,211.5z"/>
</svg>
